<svg xmlns="http://www.w3.org/2000/svg" viewBox="0 0 511.65 203.71"><defs><style>.cls-1{fill:#3c3b6e;}.cls-2{fill:#d91023;}.cls-3{fill:none;stroke:#000;stroke-miterlimit:10;}</style></defs><title>deal-makers</title><g id="Layer_4" data-name="Layer 4"><path class="cls-1" d="M90.08,340.71l7,1.84c-.5-3.28-4.5-4.82-7.33-4.16l-2.63.6,4.59,10.89a4.55,4.55,0,0,1,3-1.28c7.53-.6,7.75-12.14,0-11.9l-7.59.23,1.59,11.69A34.81,34.81,0,0,1,98,346.7V334.8a143,143,0,0,1-15.21.81l1.59,11.7,14.42-5.25c7.1-2.59,4.23-13.84-3.16-11.48a138.85,138.85,0,0,1-24.58,5.58l1.58,11.69q14.25-3.32,28.7-5.61c6.55-1,5.09-12.48-1.59-11.69l-23.1,2.71L78.26,345l25.7-5.6c6.49-1.41,5.15-12.13-1.58-11.69q-18.3,1.18-36.57,2.66c-7.55.61-7.71,12.35,0,11.91a73.82,73.82,0,0,0,20-3.85c7.16-2.48,4.3-13.53-3.17-11.48A87.38,87.38,0,0,1,62.27,330l1.58,11.69a352.88,352.88,0,0,1,51-11.83l-3.16-11.48A277.13,277.13,0,0,1,63.4,325l3,11.1a117.55,117.55,0,0,1,34.81-10.89c6.59-1,5.09-12.21-1.59-11.69l-65,5c-7.57.58-7.71,12.35,0,11.91l55.46-3.21V315.27l-45.45,4.47,1.58,11.7q33.07-7.43,66.56-12.69l-3.17-11.49L45.11,318.21l3.16,11.48A418.7,418.7,0,0,1,96.1,316.56c7.54-1.6,4.3-12.88-3.16-11.48a405.46,405.46,0,0,1-63.32,6.71l1.59,11.7a405.79,405.79,0,0,1,78.07-12.35V299.23q-39.6,2.68-78.9,8.21l3.16,11.48c23.5-8.35,48.85-11.6,73.26-16.26,4.89-.94,5.94-8.72,1.43-10.89-6.73-3.22-12.75-1.13-19.52.83A219.17,219.17,0,0,1,64.83,298c-16.25,2.79-32.72,4-49.14,5.19l1.58,11.69q48.52-13.31,98-22.49c7.57-1.4,4.3-12.71-3.17-11.48a493.94,493.94,0,0,1-86.48,6.46l1.58,11.69c29.4-12,61.05-15.12,92.4-17.93,7.52-.68,7.74-12.34,0-11.91q-47.85,2.67-95.39,9l1.59,11.7a691.31,691.31,0,0,1,96-8.62l-1.59-11.69C103.9,273,87.51,276.41,71.17,280c-15,3.31-31.33,5.57-44.89,13.21-4.39,2.47-3.56,9.66,1.42,10.88,6.49,1.59,12.76.41,19.26-.55l22.56-3.32,44.14-6.49c6.56-1,5.09-12.47-1.59-11.7-29.47,3.43-59,6.79-88.7,6.65l3,11.09A165.33,165.33,0,0,1,85.78,285.6L84.2,273.9a397.87,397.87,0,0,1-68.47,5.85l1.58,11.69c29-10.88,59.87-14.34,90.5-17.54,7.49-.78,7.73-12.47,0-11.9l-89.35,6.57,1.59,11.69c32.5-6.74,65.34-11.61,98.18-16.44l-3.17-11.48c-24.43,5.49-48.92,11-73.88,13.46l1.59,11.69c27.54-6.36,55.28-12.29,83.69-12.28l-1.58-11.7a535.94,535.94,0,0,1-91.5,11.72L35,276.93c22.4-9.22,45.49-16.49,68.59-23.7,6.23-1.94,5.35-11.88-1.58-11.69q-43,1.19-85.8,6.23c-7.41.87-7.81,12.35,0,11.9,38.17-2.17,76.39-4.29,114.64-3l-1.58-11.7a608.27,608.27,0,0,1-94.45,7.32L36.37,264a321,321,0,0,1,80-12.28L114.79,240a361.14,361.14,0,0,1-83.37,15.65L33,267.34a364.71,364.71,0,0,1,83.31-23.24l-3.16-11.48C78.5,245.83,41.33,247.22,4.67,247.68l1.58,11.7a774.41,774.41,0,0,1,130.44-14.15v-11.9c-37.23,1-74.23,7.59-111.53,5.43l1.58,11.69a387.5,387.5,0,0,1,104-13.65V224.89c-39.65,1.21-79.32,2.39-119,1.45L13.34,238a720.11,720.11,0,0,1,114.77-7.4l-1.59-11.69c-35.28,5.46-71.1,5.69-106.72,5.94l1.58,11.69a791.18,791.18,0,0,1,108.91-13.41V211.25q-27.27,2.64-54.62,4-13.68.66-27.37,1c-8.8.2-17.84.86-26.47-1.27v11.48A601.05,601.05,0,0,1,137.7,218.5V206.59q-60.34,4.68-120.92,3.92l1.58,11.69c38.48-7.08,77.5-10.13,116.53-12.15,7.61-.39,7.71-12.12,0-11.9L16.06,201.42l3,11.09c14.7-6.24,31.76-8.19,47.51-9.89a346.54,346.54,0,0,1,49.59-1.72V189A1091.77,1091.77,0,0,1,3.07,192.94v11.9q51.9-4.34,104-3.92V189L59.75,190.2c-15.27.39-31.34,2.16-46.52-.09v11.48c29.21-6.65,59.18-7.67,89-8.62,7.64-.25,7.67-12.15,0-11.91q-41.67,1.29-83.32-.61l1.59,11.69c24.54-6,49.86-6,75-4.74V175.49q-46.2,2.28-92.47.82L4.59,188c20.89-4.72,42.3-5.31,63.63-5.85v-11.9A490.39,490.39,0,0,1,4.32,168l1.59,11.69a144,144,0,0,1,34.73-3.83V164Q21,164,1.33,162.72l1.58,11.69a51.17,51.17,0,0,1,11.6-3.07c5.94-.85,5.4-10.21,0-11.48l-12.93-3v11.49a38.86,38.86,0,0,1,11.67-2.78c7.6-.53,7.66-12.44,0-11.91a49.55,49.55,0,0,0-14.83,3.2c-5,2-6.25,10,0,11.49l12.92,3V159.86a51.17,51.17,0,0,0-11.6,3.07c-6.15,2.43-5.4,11.25,1.59,11.7q19.63,1.26,39.31,1.25c7.67,0,7.67-11.83,0-11.91a158.62,158.62,0,0,0-37.9,4.26c-7,1.64-4.71,11.06,1.58,11.69a488.64,488.64,0,0,0,63.9,2.23c7.64-.23,7.68-12.09,0-11.9-22.4.56-44.87,1.31-66.8,6.27C-5.3,178-3.54,188,3,188.21q46.25,1.47,92.47-.81c7.65-.38,7.67-11.53,0-11.91-26.17-1.27-52.55-1.14-78.13,5.17-6.71,1.65-5,11.39,1.58,11.69q41.64,1.92,83.32.62V181.06c-30.89,1-61.93,2.17-92.17,9.05-5.44,1.24-5.91,10.6,0,11.48,15.74,2.34,31.87,1,47.71.57l49.32-1.24c7.65-.19,7.69-11.85,0-11.91q-52.08-.42-104,3.93c-7.54.63-7.78,11.77,0,11.9a1091.77,1091.77,0,0,0,113.09-3.94c7.55-.65,7.77-11.63,0-11.91a348.67,348.67,0,0,0-53.47,2.16c-16.8,2-34,4.42-49.64,11.08-5.58,2.37-2.54,11.25,3,11.09l118.83-3.27v-11.9c-40.09,2.07-80.17,5.3-119.7,12.57-6.74,1.25-4.95,11.61,1.59,11.7q60.51.77,120.92-3.92c7.56-.59,7.75-11.69,0-11.91a617.09,617.09,0,0,0-119,8.35c-5.92,1-5.42,10.14,0,11.48,9.1,2.25,18.38,1.94,27.67,1.74q13.69-.3,27.37-.93,28.33-1.3,56.58-4.07c7.49-.73,7.75-12.32,0-11.91A815.14,815.14,0,0,0,18.22,225.09c-6.67,1.3-5,11.74,1.58,11.7,36.74-.26,73.51-.74,109.89-6.37,6.79-1,4.92-11.6-1.58-11.7a739.8,739.8,0,0,0-117.93,7.83c-6.83,1-4.88,11.54,1.58,11.7,39.67.94,79.34-.24,119-1.45,7.64-.24,7.69-11.87,0-11.91A399.94,399.94,0,0,0,23.58,239c-6.67,1.82-5,11.31,1.58,11.69,37.3,2.16,74.3-4.46,111.53-5.43,7.64-.19,7.68-12.08,0-11.9A792,792,0,0,0,3.09,247.9c-6.66,1.3-5,11.77,1.58,11.69,37.62-.48,76.09-1.93,111.64-15.49,7.23-2.76,4.4-12.65-3.16-11.48a364.71,364.71,0,0,0-83.31,23.24c-5.63,2.32-5.76,12.18,1.58,11.69A375.79,375.79,0,0,0,118,251.47c6.23-1.94,5.34-11.87-1.59-11.69A334.52,334.52,0,0,0,33.2,252.47c-6.42,1.84-5.21,11.7,1.58,11.7a629.26,629.26,0,0,0,97.61-7.75c6.85-1.07,4.86-11.48-1.58-11.69-38.25-1.25-76.47.86-114.64,3v11.9q42.73-5,85.8-6.23l-1.58-11.69c-23.1,7.21-46.2,14.48-68.59,23.7-5.7,2.34-5.74,12,1.58,11.69A554.56,554.56,0,0,0,128,265c6.64-1.44,5-11.69-1.58-11.69C97,253.29,68.14,259.42,39.6,266c-6.41,1.48-5.18,12.37,1.58,11.7,26-2.58,51.56-8.16,77.05-13.89,7.64-1.72,4.21-12.57-3.17-11.48-32.83,4.83-65.67,9.7-98.18,16.44-6.5,1.35-5.14,12.19,1.58,11.69l89.35-6.57V262c-31.65,3.3-63.66,6.72-93.66,18-6,2.26-5.52,11.69,1.58,11.69a415.49,415.49,0,0,0,71.63-6.27c6.61-1.15,5.08-12-1.58-11.69A181.44,181.44,0,0,0,20.36,289.5c-5.61,2.52-2.51,11.07,3,11.1,29.71.14,59.23-3.22,88.7-6.65l-1.58-11.69-40.22,5.91-19.61,2.89c-6.26.92-13.53,3.09-19.8,1.56l1.43,10.88c13.05-7.36,29.51-9.26,44-12.43,15.7-3.44,31.45-6.72,47.19-10,6.6-1.37,5.07-11.83-1.58-11.69a714,714,0,0,0-99.21,9c-6.55,1.05-5.08,12.58,1.58,11.69q47.52-6.32,95.39-9V269.21c-32.34,2.9-65.22,6-95.56,18.36-5.88,2.41-5.62,11.61,1.58,11.7a512.74,512.74,0,0,0,89.65-6.89l-3.17-11.48q-49.47,9.18-98,22.49c-6.29,1.72-5.28,12.18,1.59,11.69,15-1.07,30-2.27,44.85-4.43,7.46-1.08,14.89-2.44,22.22-4.18q5-1.2,10-2.66c2.37-.69,7-2.94,9.44-1.75l1.42-10.89c-24.42,4.67-49.76,7.92-73.26,16.27C23,310.07,26.07,320,33.54,318.92q37.72-5.25,75.74-7.78c7.59-.52,7.68-12.36,0-11.91A422.8,422.8,0,0,0,28,312c-6.44,1.67-5.2,11.88,1.58,11.69a425.14,425.14,0,0,0,66.48-7.14l-3.16-11.48a418.7,418.7,0,0,0-47.83,13.13c-7.35,2.49-4.33,12.75,3.16,11.48l64.54-10.94c7.57-1.29,4.31-12.66-3.17-11.49Q76.16,312.54,43.09,320c-6.43,1.44-5.17,12.36,1.58,11.69l45.45-4.47c7.49-.74,7.75-12.36,0-11.91l-55.46,3.21v11.91l65-5L98,313.68a127.16,127.16,0,0,0-37.65,12.09c-5.27,2.62-2.77,11.36,3,11.09a295.61,295.61,0,0,0,51.48-7c7.62-1.72,4.23-12.63-3.16-11.48a352.88,352.88,0,0,0-51,11.83c-6.22,1.94-5.36,11.93,1.58,11.69a101.58,101.58,0,0,0,23.5-3.54L82.6,326.91a62.13,62.13,0,0,1-16.79,3.42v11.91q18.27-1.49,36.57-2.67l-1.58-11.69-25.71,5.6c-6.43,1.4-5.15,12.48,1.58,11.69l23.1-2.72-1.58-11.69q-14.44,2.3-28.7,5.61c-6.38,1.49-5.16,12.56,1.59,11.7a155.55,155.55,0,0,0,27.74-6l-3.16-11.48-14.43,5.25c-6.06,2.2-5.48,11.7,1.58,11.69A143,143,0,0,0,98,346.7c7.46-.79,7.78-12.35,0-11.9a46.79,46.79,0,0,0-12.52,2.34c-6.09,2.07-5.45,11.91,1.58,11.7l7.59-.24V336.7a17.73,17.73,0,0,0-9,2.89c-5.58,3.73-2.14,12.44,4.59,10.89l2.63-.61-7.33-4.16c.9,5.87,9.26,8.07,13,3.42,4.72-5.94-3.66-14.42-8.42-8.42Z" transform="translate(5.82 -149.44)"/><path class="cls-1" d="M116.25,274.64c7.66,0,7.67-11.91,0-11.91s-7.67,11.91,0,11.91Z" transform="translate(5.82 -149.44)"/><path class="cls-1" d="M123.56,274.08c7.66,0,7.68-11.91,0-11.91s-7.67,11.91,0,11.91Z" transform="translate(5.82 -149.44)"/><path class="cls-1" d="M108.38,304.45c7.66,0,7.67-11.9,0-11.9s-7.68,11.9,0,11.9Z" transform="translate(5.82 -149.44)"/><path class="cls-1" d="M111.19,305.58c7.66,0,7.67-11.91,0-11.91s-7.68,11.91,0,11.91Z" transform="translate(5.82 -149.44)"/><path class="cls-1" d="M119.06,287c7.66,0,7.68-11.91,0-11.91s-7.67,11.91,0,11.91Z" transform="translate(5.82 -149.44)"/><path class="cls-1" d="M115.69,300.52c7.66,0,7.67-11.91,0-11.91s-7.68,11.91,0,11.91Z" transform="translate(5.82 -149.44)"/><path class="cls-1" d="M134.25,228c7.66,0,7.67-11.9,0-11.9s-7.67,11.9,0,11.9Z" transform="translate(5.82 -149.44)"/><path class="cls-1" d="M139.31,209.39c7.66,0,7.68-11.91,0-11.91s-7.67,11.91,0,11.91Z" transform="translate(5.82 -149.44)"/><path class="cls-1" d="M128.63,203.77c7.66,0,7.67-11.91,0-11.91s-7.68,11.91,0,11.91Z" transform="translate(5.82 -149.44)"/><path class="cls-1" d="M122.44,204.33c7.66,0,7.67-11.91,0-11.91s-7.68,11.91,0,11.91Z" transform="translate(5.82 -149.44)"/><path class="cls-1" d="M123.05,200.87c.91.36,2.47,1.08,3.8,1.79a45.41,45.41,0,0,1,4.32,2.65c2.58,1.76,6.72.57,8.15-2.14a6.1,6.1,0,0,0-2.14-8.14,54.09,54.09,0,0,0-11-5.64c-2.91-1.13-6.66,1.25-7.32,4.16-.78,3.42,1,6.11,4.15,7.32Z" transform="translate(5.82 -149.44)"/><path class="cls-1" d="M108.94,198.14c7.66,0,7.67-11.91,0-11.91s-7.68,11.91,0,11.91Z" transform="translate(5.82 -149.44)"/></g><g id="Layer_5" data-name="Layer 5"><path class="cls-2" d="M332.3,183.63a155.4,155.4,0,0,1,27.66-7.9l-5.79-9.95c-3.18,3.91-7.58,6-11.63,8.8-4.43,3.11-7.55,6.49-9.61,11.52s4.62,9,8.74,6.72l40.69-22-8.75-6.72c-1.23,3-4.86,4.79-7.42,6.45a50.17,50.17,0,0,0-8.9,6.93c-5.36,5.49-9,12.82-15.44,17.2-6.27,4.26-.51,14.44,6,10.28L408,166.58l-8.15-8.14c-3,5.15-8.5,7.85-13.43,10.87-5.46,3.34-10.84,6.82-16,10.6-10.25,7.51-19.4,16.05-26.7,26.51-3.58,5.13,3.26,10.82,8.15,8.14a855.18,855.18,0,0,0,81.54-50.84l-8.15-8.14c-2.11,3.47-6,5.38-9.35,7.45-3.73,2.28-7.49,4.5-11.27,6.71-8.34,4.89-16.73,9.72-24.77,15.11-14.13,9.46-27,20.59-36.36,34.94-3.39,5.21,3.16,10.85,8.15,8.15q56.22-30.42,110-65l-9-5.14c.15-1.67-.93-.23-1.91.32s-2.21,1.22-3.32,1.82q-3.74,2.06-7.44,4.14-7.43,4.15-14.79,8.44-15.14,8.79-30,18c-9.23,5.75-18.54,11.47-27.41,17.74-7.88,5.57-15.2,12-19.55,20.74-2.13,4.28,1.45,10.58,6.72,8.75a349.94,349.94,0,0,0,119.2-70.48c5.74-5.17-2.65-13.35-8.42-8.42-9.1,7.8-20.74,11.69-31.49,16.61-12.25,5.59-23.41,13.23-34.73,20.46-11.09,7.09-22.68,13.73-33.24,21.61-8.49,6.34-16.19,14.28-18.14,25.09-.92,5.08,3.92,9.29,8.74,6.72,23-12.24,47.4-21.38,70.95-32.42a279.76,279.76,0,0,0,33.32-18.08c10.42-6.74,20.65-14,25.45-25.82,1.63-4-3.31-8.89-7.32-7.32-23.59,9.22-42.68,25.46-62.95,40.15-21.33,15.46-45.13,27.3-65.17,44.55-3.66,3.15-.9,10.83,4.21,10.16,26.92-3.55,50.33-14.75,71.12-32,10.71-8.91,21.34-16.59,34.12-22.3,12.31-5.51,25.12-9.8,37.28-15.66l-6-10.28a410.75,410.75,0,0,1-71.73,40.58c-12.4,5.44-25.07,10-36.63,17.15-11.72,7.26-22.51,15.89-34.24,23.13-6.69,4.14-.86,13.25,6,10.28,41.8-18,82.57-38.33,123.3-58.65l-6-10.28c-38.6,27.15-85.28,39.17-124.84,64.65-4.49,2.89-3.29,11.87,3,11.1,12-1.47,24.22-2.43,36.07-4.9s22.83-7.79,33.25-13.94C441.29,247,461.48,233,484,223l-6-10.28-66,34.15c-20.55,10.63-43.05,19.95-61.06,34.71-5.65,4.64,1.57,11.85,7.22,9.35,21.64-9.57,43.43-18.88,64.71-29.25,20.73-10.1,41.12-21,62.67-29.26l-5.79-10c-4.1,4.54-9.74,6.92-15.15,9.56q-8.62,4.22-17.29,8.32-18.66,8.82-37.55,17.1c-11.73,5.14-23.62,9.89-35.35,15-10.25,4.48-20.15,10-27.56,18.54-3.57,4.13-.26,12.06,5.79,10q69.32-24.14,136.26-54.41l-7.21-9.35c-8.89,7.22-21.19,9.77-31.76,13.56q-17.22,6.16-34.05,13.34a639.44,639.44,0,0,0-66.1,32.64c-6,3.39-1.9,12.45,4.59,10.88,24.66-5.94,50.36-10.46,73.66-20.81,21-9.34,39.92-23.28,62.55-28.7l-4.59-10.88c-10.47,6.65-24,8.92-35.75,12.61-12.72,4-25.38,8.2-37.92,12.74a570.45,570.45,0,0,0-72.07,31.35c-5.05,2.66-2.92,11.6,3,11.09,13-1.11,24-8.11,36.15-12.32,12.86-4.47,26.24-7.16,39.45-10.36a254.91,254.91,0,0,0,38.1-12.51c12.71-5.29,25.29-10.88,38.66-14.31l-7.32-7.32q2.06-1.83-.63-.29l-3.7,1.5-7.39,3L462.64,268,434,279.65c-5.76,2.34-5.69,11.9,1.59,11.7,23.32-.67,43.77-12.42,66-17.85L497,262.62a129.07,129.07,0,0,1-26.6,12.88c-7.22,2.5-4.37,13.14,3.16,11.48a133.45,133.45,0,0,0,18.58-5.52c7.1-2.68,4-14.2-3.16-11.48a133.45,133.45,0,0,1-18.58,5.52L473.56,287A142.46,142.46,0,0,0,503,272.9c5.7-3.59,2.06-12.5-4.58-10.88-21.08,5.14-40.82,16.79-62.86,17.42l1.58,11.69,35.13-14.28,16.65-6.76c4.4-1.79,9.88-3.38,10.79-8.78.74-4.4-2.6-8.54-7.32-7.32-13.08,3.36-25.4,8.77-37.82,14a252.28,252.28,0,0,1-37.18,12.42C404.77,283.48,392,286,379.6,290a174.14,174.14,0,0,0-18.07,7.11c-5.87,2.64-11.85,5.38-18.34,5.93l3,11.1a558,558,0,0,1,72.72-31.41c12.27-4.37,24.65-8.44,37.09-12.31,11.94-3.73,25.26-6.2,35.93-13,5.7-3.61,2.06-12.47-4.59-10.88-22.53,5.39-41.62,18.77-62.33,28.5-23.07,10.83-49.25,15.07-73.87,21L355.72,307a627.53,627.53,0,0,1,68.07-33.47q17-7.1,34.45-13.16c11.19-3.9,22.45-7.18,31.8-14.77,5.65-4.58-1.56-11.91-7.22-9.35q-65.47,29.6-133.41,53.21l5.79,9.95c7.3-8.43,17.21-13.33,27.32-17.62,12.24-5.19,24.53-10.26,36.69-15.62s24.5-11,36.64-16.79c10.72-5.1,24.11-9.51,32.25-18.51,3.64-4,.16-12.24-5.79-10-21.94,8.44-42.76,19.32-63.85,29.64-21.82,10.69-44.17,20.25-66.38,30.07l7.21,9.35C367.72,283,377.5,278,387.14,273l32.56-16.85L484,223c6.92-3.58.85-13.33-6-10.28-21.35,9.51-40.72,22.57-60.67,34.62-9.74,5.88-19.69,11.35-30.84,14-11.62,2.77-23.76,3.62-35.6,5.07l3,11.1C393.41,252,440.09,240,478.69,212.81c6.24-4.39.92-13.74-6-10.28-40.73,20.32-81.5,40.61-123.3,58.65l6,10.28c11.47-7.08,22.05-15.5,33.48-22.66,11.78-7.38,24.71-12.07,37.38-17.62A409.83,409.83,0,0,0,498,190.6a6,6,0,0,0-6-10.28c-11.63,5.6-23.85,9.78-35.67,15a136.69,136.69,0,0,0-32.64,20.28c-10.08,8.31-20,16.24-31.77,22.06a117.19,117.19,0,0,1-36.43,11.06l4.21,10.17C378.92,242.28,402,231,422.44,216.15c19.26-14,37.67-30.18,60.1-39l-7.32-7.32c-4.18,10.32-16.81,16.92-25.83,22.34a319.71,319.71,0,0,1-32.18,16.62c-22.08,10.08-44.78,18.81-66.24,30.24l8.75,6.72c1.86-10.33,10.46-16.75,18.76-22.21C389.63,216.26,401,209.2,412.22,202c10.33-6.6,20.6-13,31.86-17.91,10.7-4.68,21.22-9.14,30.18-16.81l-8.42-8.42a335,335,0,0,1-113.95,67.42l6.73,8.74c4.56-9.18,12.81-14.95,21.16-20.45q15-9.89,30.38-19.23,14.94-9.12,30.16-17.77c5.21-3,10.46-5.84,15.7-8.75,4.76-2.65,8.14-5.35,8.64-11.06.38-4.47-5.36-7.46-9-5.14q-53.76,34.59-110,65l8.14,8.14c9.59-14.73,23.66-25.5,38.37-34.74,7.94-5,16.09-9.58,24.14-14.37,6.94-4.12,14.92-8,19.24-15.1,3-4.87-3.16-11.66-8.14-8.15a857.2,857.2,0,0,1-81.54,50.84l8.14,8.14c7.37-10.54,17.31-18.89,27.89-26.07,9.62-6.54,22.12-11.5,28.24-21.9,2.95-5-3-11.4-8.14-8.15l-60.17,38.36,6,10.28c7.9-5.37,12.08-13.66,18.87-20.08,6.61-6.25,14.66-8.59,18.36-17.61,2.11-5.13-4.62-9-8.74-6.73l-40.69,22,8.75,6.72c1.37-3.35,5.48-5.29,8.35-7.11,3.58-2.26,7.13-4.64,9.82-8,3.78-4.66.28-11.1-5.79-9.95a155.4,155.4,0,0,0-27.66,7.9c-7.06,2.75-4,14.26,3.17,11.48Z" transform="translate(5.82 -149.44)"/><path class="cls-2" d="M402,191.57a100.85,100.85,0,0,1,37.07-19.34c7.36-2.09,4.23-13.58-3.17-11.49a115.18,115.18,0,0,0-42.32,22.41c-5.9,4.9,2.56,13.28,8.42,8.42Z" transform="translate(5.82 -149.44)"/><path class="cls-2" d="M440.56,153.33q-20.51,6.45-40.59,14.16c-10.36,4-24.77,9.61-23,23.4.63,5.07,6.05,7.92,10.16,4.21a20.17,20.17,0,0,1,11.09-5l-7.54-5.74c.07,3.08-1.35,4.64-4.13,5.82l8.95,5.14,1.14-11.49c.23-2.31,0-8.08.73-9.3a28.44,28.44,0,0,0,3.38-1.15l4.38-1.55q5.27-1.85,10.54-3.64c12.55-4.27,26.23-9.73,39.41-5l1.58-11.69c-26,2-53.29,2-78.71,8.46-7.42,1.89-4.28,13.37,3.16,11.48,12.06-3.07,24.37-4.16,36.74-5.1l38.81-2.94a6,6,0,0,0,1.58-11.69c-16.73-6-34.27,1.07-50.13,6.54-6.24,2.14-17.26,3.79-20.9,10.1-1.91,3.3-1.73,8-2.09,11.67l-1.52,15.33c-.5,5,5.3,6.7,9,5.15a16.92,16.92,0,0,0,10-16.11c-.1-4.23-3.72-6.32-7.54-5.74a31,31,0,0,0-16.34,8l10.16,4.21c-.62-5,3.43-7.37,7.48-9.2,5.11-2.3,10.5-4.15,15.77-6.09q15.69-5.79,31.65-10.79c7.28-2.29,4.17-13.79-3.17-11.48Z" transform="translate(5.82 -149.44)"/><path class="cls-2" d="M365.44,177.33c7.66,0,7.67-11.91,0-11.91s-7.68,11.91,0,11.91Z" transform="translate(5.82 -149.44)"/></g><g id="Layer_2" data-name="Layer 2"><path d="M317.77,260.14c-2.22-3.66-5.62-6-9-7.78a44.26,44.26,0,0,0-5.29-2.33c-.9-.34-1.81-.65-2.72-.94l-1.38-.41-.86-.23h0s0,0,0,0l-.08-.12-.17-.23a6.33,6.33,0,0,0-.69-.83l-.7-.78-.74-.71c-.49-.48-1-.94-1.5-1.36s-1-.87-1.53-1.27c-2.06-1.66-4.2-3.16-6.35-4.64-4.32-2.92-8.73-5.66-13.19-8.31-8.92-5.3-18-10.28-27.12-15.15q-6.85-3.63-13.77-7.17l-1.73-.88-1-.48-.78-.4c-.28-.26-.6,0-.9.08l-4,1.39-7.31,2.5c-4.89,1.63-9.79,3.18-14.73,4.58a122.24,122.24,0,0,1-14.9,3.39,28.61,28.61,0,0,1-7.29.29,5.23,5.23,0,0,1-2.73-1,1.7,1.7,0,0,1-.54-.87,3.48,3.48,0,0,1,0-1.31,10.89,10.89,0,0,1,1.08-3.18,31.22,31.22,0,0,1,1.84-3.19,68.18,68.18,0,0,1,4.53-6.06c1.6-2,3.32-3.88,5-5.79.85-1,1.71-1.91,2.59-2.83s1.74-1.89,2.65-2.75,1.8-1.8,2.75-2.56a17.66,17.66,0,0,1,2.84-2.11,4.39,4.39,0,0,1,2.86-.6,12,12,0,0,0,4.31-.18,11.13,11.13,0,0,0,2.05-.64,13.68,13.68,0,0,0,1.9-.85c.6-.32,1.23-.6,1.8-.95l1.7-1.05c1.16-.68,2.2-1.47,3.28-2.23l3.14-2.23a39.67,39.67,0,0,1,6.48-3.64,37.35,37.35,0,0,1,7.07-2.27,39.18,39.18,0,0,1,14.8-.19,47.6,47.6,0,0,1,7.24,1.9c1.18.41,2.34.88,3.48,1.38.57.26,1.13.53,1.68.8l.82.43.4.22.53.31,40.1,13.37.85-.25.85-.25a2.23,2.23,0,0,1,.27-.21l.12-.07a2.6,2.6,0,0,1,.25-.1,1.44,1.44,0,0,1,.51-.08,2.76,2.76,0,0,1,1.23.4,9.23,9.23,0,0,1,2.52,2.48,36.48,36.48,0,0,1,3.83,7,120.64,120.64,0,0,1,5.23,15.68c2.87,10.73,5.06,21.67,7,32.66s3.52,22,5,33.11c.08.67.19,1.41.26,2,0,.31.06.68.05.74v0l-.39-.39a52.69,52.69,0,0,1-4.87-6.48c-3-4.61-5.88-9.42-8.59-14.25,0,0,.44.8,1.26,2.33s2.09,3.78,3.76,6.64a113.08,113.08,0,0,0,6.53,10.13c.35.46.71.93,1.09,1.37s.88,1,1,1.08.31.3.53.26.2-.36.22-.58a4.84,4.84,0,0,0,0-.72c0-.32-.05-.64-.09-1-.08-.69-.17-1.39-.25-2.1-.17-1.42-.34-2.88-.52-4.37-1.45-12-3.31-26.25-6.25-42.09-1.5-7.91-3.23-16.23-5.72-24.71a90.79,90.79,0,0,0-4.64-12.7,27.68,27.68,0,0,0-3.67-6,8.28,8.28,0,0,0-2.84-2.28,4.18,4.18,0,0,0-1.92-.34,3.75,3.75,0,0,0-1.81.66,2,2,0,0,0-.27.23c0,.07-.1,0-.16,0l-.17-.06-39.16-13.53-.4-.23-.48-.27-1-.51c-.65-.34-1.31-.65-2-1-1.33-.59-2.69-1.12-4.08-1.6a47.82,47.82,0,0,0-8.57-2.07,39.65,39.65,0,0,0-26,4.9l-1.93,1.18-1.85,1.28-3.55,2.49c-1.18.82-2.42,1.51-3.62,2.26l-1.86.93-.47.24-.47.16-.94.34a3.57,3.57,0,0,1-.93.25c-.31.06-.62.15-.93.18l-.91,0-1-.07-1.17-.11a12.39,12.39,0,0,0-1.36.07c-.45.1-.91.2-1.34.33l-1.17.55a6.28,6.28,0,0,0-1,.64l-1,.67c-.62.47-1.17,1-1.76,1.46-1.16,1-2.17,2.05-3.26,3.07l-3,3.19-2.94,3.24c-2,2.15-3.86,4.38-5.66,6.69a46.27,46.27,0,0,0-4.9,7.42,14.22,14.22,0,0,0-1.51,4.57,6,6,0,0,0,.33,2.83,5,5,0,0,0,1.93,2.33,10.06,10.06,0,0,0,4.79,1.38,27.6,27.6,0,0,0,4.47-.09A100,100,0,0,0,201.74,218c5.33-1.49,10.5-3.14,15.57-4.85,2.53-.85,5-1.72,7.5-2.59l3.68-1.32.18-.07s0,0,0,0l.46.22,1.72.86c9.16,4.58,17.91,9.1,26.12,13.47s15.89,8.62,22.86,12.77c3.49,2.08,6.8,4.14,9.86,6.25,1.54,1.05,3,2.14,4.37,3.25.67.57,1.35,1.13,2,1.75.3.31.61.61.9.93l.74.94c.46.09,1,.22,1.56.35l1.59.41q1.57.44,3.06.93a45.73,45.73,0,0,1,5.54,2.26A21.26,21.26,0,0,1,317.77,260.14Z" transform="translate(5.82 -149.44)"/><path class="cls-3" d="M375.21,285.31" transform="translate(5.82 -149.44)"/><path d="M301.61,189.15,312,184.58l5.23-2.24,2.61-1.08,1.3-.51.63-.24.52-.17a3.67,3.67,0,0,0-.71-.06c-.52,0-1.3,0-2.24.12a50.36,50.36,0,0,0-7,1.17C307.25,182.83,302,185.14,301.61,189.15Z" transform="translate(5.82 -149.44)"/><path d="M315.12,182.38a13.16,13.16,0,0,1,.58-2.78,4.1,4.1,0,0,1,1.21-1.94,2.61,2.61,0,0,1,1.91-.47,8.11,8.11,0,0,1,2.55.77,25.45,25.45,0,0,1,5,3.32c.79.65,1.57,1.34,2.31,2.05l.6.57v1.58l.65.77.65.77.25.12.13.06,0,0,.2.13.41.26c.27.17.52.45.79.66a12.64,12.64,0,0,1,1.49,1.59l.36.41.32.47.64.95.64.94.55,1,1.1,2.05c.35.69.62,1.43.94,2.15l.92,2.16c.3.73.52,1.49.79,2.24a130.61,130.61,0,0,1,4.75,18.47,329.28,329.28,0,0,1,4.35,38.2c.3,6.41.75,12.82.82,19.26l.23,9.64,0,1.2,0,.6a1,1,0,0,1,0,.17l0,.3-.21,2.37c-.16,1.59-.34,3.17-.55,4.75a90,90,0,0,1-1.69,9.35,36.57,36.57,0,0,1-1.34,4.42,14.92,14.92,0,0,1-.92,2,4.7,4.7,0,0,1-1.1,1.4c-.39.27-.49.27-.82.19a4.69,4.69,0,0,1-1.4-1.07,19.28,19.28,0,0,1-3-3.36,15.16,15.16,0,0,1-2-3.89,12.56,12.56,0,0,1-.49-2.08c0-.35-.07-.69-.08-1a8.06,8.06,0,0,1,0-.9,9,9,0,0,0,.26,3.75,15.11,15.11,0,0,0,1.92,4.41,12.94,12.94,0,0,0,.85,1.23,14.18,14.18,0,0,0,1,1.25c.35.43.77.83,1.18,1.25a5.47,5.47,0,0,0,1.24,1,1.39,1.39,0,0,0,1.26.14,3.08,3.08,0,0,0,1.29-1,14.67,14.67,0,0,0,2-3.69,56.78,56.78,0,0,0,2.56-9.3c.68-3.36,1.24-6.93,1.68-10.66l.07-.7c0-.27,0-.48,0-.73v-1.42c0-1,0-1.92,0-2.89,0-1.94,0-3.92,0-5.91,0-16-.51-33.72-2.94-50.68-.33-2.11-.66-4.22-1-6.31-.15-1.05-.36-2.08-.58-3.11s-.43-2.06-.64-3.08c-.43-2.05-.84-4.07-1.43-6-.27-1-.54-2-.81-3s-.53-1.95-.89-2.9a60.73,60.73,0,0,0-4.57-10.77,29.59,29.59,0,0,0-3.13-4.68l-1-1a6.56,6.56,0,0,0-1-1c-.37-.3-.71-.61-1.1-.87l-.62-.37a3.6,3.6,0,0,0-.49-.26,2,2,0,0,0-.23-.06c-.09,0,0-.14-.07-.21l0-.21,0-.52,0-.79v-.19c0-.06-.09-.1-.13-.15l-.28-.27-.28-.27-.21-.18-.38-.34-.78-.66a38.2,38.2,0,0,0-3.15-2.34,17.48,17.48,0,0,0-6.44-2.85,4.88,4.88,0,0,0-2.93.32,3.37,3.37,0,0,0-1.6,1.86A9.2,9.2,0,0,0,315.12,182.38Z" transform="translate(5.82 -149.44)"/><path d="M317.06,177.12l36.76-8.74c12.25-2.86,24.52-5.73,36.81-8.34,12.31-2.46,24.7-4.76,37.11-6.69,6.2-1,12.42-1.81,18.65-2.47,1.55-.17,3.11-.32,4.67-.43s3.1-.23,4.66-.31,3.1-.13,4.63-.11c.77,0,1.51,0,2.27.07l1.09.11.5.07.21,0,.1,0h0c.16,0-.16-.09-1-.23a33.5,33.5,0,0,0-3.82-.37,131.94,131.94,0,0,0-14.37.26c-12.05.74-28.38,2.72-45.39,5.54-8.52,1.33-17.21,3.12-25.61,4.94s-16.55,3.76-24,5.69C335.36,170,323.13,173.86,317.06,177.12Z" transform="translate(5.82 -149.44)"/><path d="M346.41,317.61q14.38-5.91,28.89-11.54c9.68-3.74,19.38-7.4,29.17-10.75,4.88-1.66,9.82-3.29,14.74-4.47.62-.14,1.23-.29,1.84-.39l.9-.16.86-.09a4,4,0,0,1,.76,0,5,5,0,0,1,.86.08l1.9.26,3.85.6a25,25,0,0,0,4.11.34,41.24,41.24,0,0,0,8-1.11c2.54-.56,5-1.06,7.57-1.48,5.07-.85,10.21-1.52,15.32-2,0,0-1.58,0-4.42.19s-6.91.42-11.85,1c-2.48.28-5.14.7-8,1.17a28.65,28.65,0,0,1-9.09.28c-1.56-.25-3.15-.62-4.79-.93l-2.48-.46a9.24,9.24,0,0,0-1.36-.13c-.47,0-.89,0-1.35.07a72.08,72.08,0,0,0-10.37,2.23c-6.89,1.9-13.81,4.2-20.5,6.58s-13.13,4.88-19,7.34C360.26,309.12,350.82,313.9,346.41,317.61Z" transform="translate(5.82 -149.44)"/><path d="M184.74,197.45l-10.32,6.08-5.17,3c-1.72,1-3.45,2.06-5.14,2.93-3.38,1.8-7.05,3.23-10.59,3.22a8.32,8.32,0,0,1-4.72-1.49,7.66,7.66,0,0,1-1.73-1.77,8.36,8.36,0,0,1-.63-1.09,6.3,6.3,0,0,1-.44-1.08,4.5,4.5,0,0,0,.27,1.38,8.06,8.06,0,0,0,2.18,3.52,9.44,9.44,0,0,0,6,2.35,20.15,20.15,0,0,0,8-1.3,29.92,29.92,0,0,0,3.93-1.64c1.32-.59,2.48-1.27,3.69-1.92,2.38-1.32,4.66-2.69,6.68-4.07C180.76,202.84,183.81,200,184.74,197.45Z" transform="translate(5.82 -149.44)"/><path d="M9.79,323.4l91.55,29.75c-.22-.84-.72-2.24-.86-3.07a5,5,0,0,1-.2-1.38c0-.23,0-.37,0-.56a18.58,18.58,0,0,1,.38-2.23,42,42,0,0,1,1.41-4.57c1.11-3,2.45-6,3.87-9,.72-1.47,1.45-2.94,2.22-4.39l.57-1.09.29-.53.15-.27a1.47,1.47,0,0,0,.12-.25l.07-.16,1-2.31,1.91-4.61,1-2.31.88-2.33c4.8-12.41,8.94-25,12.71-37.77s7.21-25.55,10.4-38.43c1.61-6.44,3.12-12.89,4.61-19.36l2.15-9.71,1-4.87,1.27-6.19-15.73-5.66L116,187q-14.52-5.07-29.13-9.9c-9.76-3.18-19.52-6.33-29.49-9-2.5-.65-5-1.28-7.6-1.76a21.3,21.3,0,0,0-4.16-.42A3.23,3.23,0,0,0,45,166l-.37.06a5.09,5.09,0,0,0-.49.18l-.88.42a3.09,3.09,0,0,1-.74.29,6.43,6.43,0,0,1-.78.24,22.79,22.79,0,0,1-7.13.29c-1.22-.11-2.45-.29-3.68-.5q-.91-.16-1.83-.36l-1.42-.32L26,164.84l-2-1.7q-2-1.69-4.08-3.29a47,47,0,0,0-4.42-3,14.91,14.91,0,0,0-2.66-1.23,4.32,4.32,0,0,0-2-.2,2.6,2.6,0,0,0-1.39.67,2.94,2.94,0,0,0-.75,1.31,4.46,4.46,0,0,1,.29-.71,2.89,2.89,0,0,1,.75-.82,4.24,4.24,0,0,1,.64-.32,4.53,4.53,0,0,1,.66-.13,5.36,5.36,0,0,1,2.34.47,15.7,15.7,0,0,1,2.27,1.2,51,51,0,0,1,5.37,4c1,.82,2.05,1.72,3.15,2.7l1.69,1.52.87.81c.26.24.71.66.68.65s.5.14.85.23l1.18.27c.79.18,1.61.35,2.44.49a38.44,38.44,0,0,0,5.28.57,17.24,17.24,0,0,0,5.52-.59,7.61,7.61,0,0,0,1.29-.53l.4-.18a1.79,1.79,0,0,1,.56-.16,5.11,5.11,0,0,1,.93-.07,19,19,0,0,1,3.31.41c4.32.85,8.74,2.14,13.38,3.54s9.46,3,14.47,4.66c10,3.36,20.74,7.15,32,11.22l17.26,6.3,17.26,6.43c-.66,3-1.33,6-2,9q-1.12,4.83-2.26,9.71c-1.56,6.5-3.16,13.05-4.86,19.61-3.38,13.11-7,26.29-11,39.25s-8.16,25.69-12.94,37.82c-1.2,3-2.47,6-3.68,9l-.41,1-.58,1.08-1.12,2.15q-1.09,2.16-2.12,4.33c-1.35,2.91-2.61,5.83-3.66,8.84a38.94,38.94,0,0,0-1.32,4.62,19.58,19.58,0,0,0-.36,2.47c0,.62,0,.42,0,.5a.38.38,0,0,0,0,.1l-25.86-8c-8.92-2.74-17.29-5.25-25-7.5C31.14,328.7,18.53,325.3,9.79,323.4Z" transform="translate(5.82 -149.44)"/><path d="M156.85,297.28a31.23,31.23,0,0,0,.39,5.06,25.22,25.22,0,0,0,1.22,5,14.18,14.18,0,0,0,2.69,4.66,8.66,8.66,0,0,0,5,2.84,11.53,11.53,0,0,0,5.48-.43,22.57,22.57,0,0,0,4.72-2.09c.73-.42,1.46-.84,2.14-1.32s1.39-.92,2-1.43l1-.75.5-.39.93-.77,3.7-3.08-4.09-1.09-2.84-.8-4-1.17q-4-1.2-7.94-2.52c-5.27-1.75-10.49-3.64-15.52-5.89a60.92,60.92,0,0,1-7.23-3.75,19,19,0,0,1-3.08-2.33,5.18,5.18,0,0,1-.61-.64c-.09-.11-.2-.22-.28-.33l-.2-.33a2,2,0,0,1-.31-.61l-.06-.14-.09-.28-.2-.57A9.75,9.75,0,0,0,137.6,280a11.54,11.54,0,0,0-4.07-2.52,17.59,17.59,0,0,0-4.46-1,22.19,22.19,0,0,0-4.54,0l.49,0c.3,0,.74,0,1.3,0a23,23,0,0,1,4.76.78,12.46,12.46,0,0,1,6.28,3.85,9.89,9.89,0,0,1,1.87,4,7.25,7.25,0,0,0,2.43,3.72,42.6,42.6,0,0,0,8.65,5.68c3.23,1.69,6.71,3.27,10.3,4.73s7.31,2.85,11,4.12q2.81,1,5.63,1.83L180,306s0,0,0,0h0l-.08.06c-.81.6-1.58,1.24-2.39,1.79a35.23,35.23,0,0,1-4.87,2.94,13.68,13.68,0,0,1-4.86,1.37,6.17,6.17,0,0,1-4.2-1.25,11,11,0,0,1-2.84-3.39,27.23,27.23,0,0,1-1.74-3.81C158.12,301.21,157.46,299.07,156.85,297.28Z" transform="translate(5.82 -149.44)"/><path d="M209,321.63a18.74,18.74,0,0,0,2.2-5.61,24.59,24.59,0,0,0,.47-5.85,38,38,0,0,0-2.22-11.25l-.3-.81-.13-.32a2.73,2.73,0,0,0-.22-.24l-.34-.34-1.07-1.07a13.72,13.72,0,0,0-1.18-1,8.48,8.48,0,0,0-1.26-.86,14.71,14.71,0,0,0-5.72-2.07,18.45,18.45,0,0,0-6,.09,20.62,20.62,0,0,0-2.89.7c-.48.16-.92.31-1.42.51s-.83.37-1.24.56l-.16.07s0,.11-.06.16l-.09.32c-.07.22-.13.44-.19.66l-1.45,5.48-1.45,5.31c-.48,1.78-1,3.56-1.41,5.37a42.83,42.83,0,0,0-1.08,5.63,13,13,0,0,0,.06,3.17,6.42,6.42,0,0,0,1.51,3.23,9.36,9.36,0,0,0,2.65,2,23.43,23.43,0,0,0,2.71,1.18c1.79.66,3.57,1.2,5.33,1.74l5.13,1.58a7.56,7.56,0,0,0,5.84,1.11,10.39,10.39,0,0,0,4.9-2.84,20.81,20.81,0,0,0,3.24-4.14c.44-.73.86-1.47,1.24-2.23l.16-.3a1.39,1.39,0,0,0,.12-.28l.07-.21.18-.56.39-1.12a59.69,59.69,0,0,1,3.83-8.68,29.7,29.7,0,0,1,2.52-3.88,12.92,12.92,0,0,1,3.11-3,4,4,0,0,1,3.41-.56,5.36,5.36,0,0,1,1.67.87c.6.44,1.29,1,1.93,1.46,1.29,1,2.64,1.94,3.79,2.93a7.46,7.46,0,0,1,2.44,3.12,7.84,7.84,0,0,1-.05,4c-.18.73-.39,1.48-.61,2.22l-.78,2.23c-1.11,3-2.43,5.94-3.72,8.9l.75-1.52c.51-1,1.22-2.45,2.1-4.32a53,53,0,0,0,2.77-6.87,10.34,10.34,0,0,0,.53-4.26c0-.36-.18-.7-.26-1.07s-.34-.68-.51-1l-.74-1-.9-.94c-1.29-1.21-2.79-2.38-4.3-3.62-.76-.63-1.52-1.28-2.33-1.85a5.89,5.89,0,0,0-2.85-.94,5.74,5.74,0,0,0-3.05.78,12.25,12.25,0,0,0-2.62,2,28.16,28.16,0,0,0-4.08,5.46,59.45,59.45,0,0,0-3.19,6.33c-.47,1.1-.93,2.22-1.35,3.37l-.31.87c0,.1-.23.43-.36.68-.29.51-.6,1-.92,1.52a18.56,18.56,0,0,1-2.12,2.82,11.74,11.74,0,0,1-2.58,2.22,5.13,5.13,0,0,1-5.85,0l-.23-.13-.23-.13-6.57-2.16a44.14,44.14,0,0,1-6.13-2.35,5.88,5.88,0,0,1-2.1-1.67,4,4,0,0,1-.65-2.38,14.33,14.33,0,0,1,.31-3c.18-1,.43-2.1.68-3.16,1.07-4.24,2.29-8.46,3.34-12.58L190,297l.15-.61s0,0,0,0h0l.14,0c.21-.1.44-.17.66-.26a18.85,18.85,0,0,1,5.47-1.09,13.35,13.35,0,0,1,9.55,3.29l.9.82c.12.09.1.09.19.28l.25.58c.32.77.6,1.55.87,2.32a42.72,42.72,0,0,1,1.29,4.53,31.83,31.83,0,0,1,.85,8.25A23.66,23.66,0,0,1,209,321.63Z" transform="translate(5.82 -149.44)"/><path d="M210.6,329.77a22.3,22.3,0,0,0,1.62,6.87,12.84,12.84,0,0,0,1.89,3.18,8.63,8.63,0,0,0,3.11,2.43,8.53,8.53,0,0,0,3.92.69,13.73,13.73,0,0,0,3.63-.82,25.89,25.89,0,0,0,6-3.42l-1,.33c-.6.22-1.5.49-2.55.8a23.17,23.17,0,0,1-3.67.72,9.37,9.37,0,0,1-4-.3c-2.44-.79-3.73-3-4.92-5.2S212.45,330.94,210.6,329.77Z" transform="translate(5.82 -149.44)"/><path d="M232,340.63a27.93,27.93,0,0,0,6,5.35,21.68,21.68,0,0,0,7.4,3.25,16.94,16.94,0,0,0,8.22-.19,21.46,21.46,0,0,0,7.21-3.7l-1.1.43a11.09,11.09,0,0,1-1.27.46,16.89,16.89,0,0,1-1.67.51,18.44,18.44,0,0,1-9,.22,33.77,33.77,0,0,1-8.62-3.75C236.57,341.78,234.31,340.68,232,340.63Z" transform="translate(5.82 -149.44)"/><path d="M240,317.72a8.91,8.91,0,0,1,1.45.12,11.31,11.31,0,0,1,1.53.35,9.76,9.76,0,0,1,1.47.58,8.45,8.45,0,0,1,1.38.76,12.75,12.75,0,0,1,4.21,4.73c2.1,3.87,2.68,8.57,2.71,13.19,0,0,.38-1.41.83-3.73a37.08,37.08,0,0,0,.29-4c0-.75-.09-1.55-.15-2.37s-.32-1.64-.51-2.49a7,7,0,0,0-.4-1.25l-.51-1.24a18.18,18.18,0,0,0-1.38-2.32,11,11,0,0,0-4-3.28C244,315.31,240.84,316,240,317.72Z" transform="translate(5.82 -149.44)"/><path d="M243.63,307.78c3.59,1.83,7.17,3.82,10.62,5.93a70.76,70.76,0,0,1,9.79,7,11.35,11.35,0,0,1,3.3,4.18,14,14,0,0,0,4.12,5.5A32.67,32.67,0,0,0,276.8,334c.93.52,1.88,1,2.84,1.45l1.51.67-.06.17,0,.08v0l-.11.23a18.52,18.52,0,0,1-.92,1.77,11.62,11.62,0,0,1-2.43,3,10.34,10.34,0,0,1-7,2.48,22.15,22.15,0,0,1-7.95-1.63,38.12,38.12,0,0,1-7.4-3.83l.12.11.4.33c.36.29.91.7,1.64,1.21a34.85,34.85,0,0,0,6.55,3.63,22.64,22.64,0,0,0,4.93,1.46,14.62,14.62,0,0,0,5.91-.13,12.21,12.21,0,0,0,5.68-3.39c.38-.44.77-.89,1.13-1.36s.68-1,1-1.48L283,338l.22-.39a4.46,4.46,0,0,0,.23-.48c.33-.82.67-1.64,1-2.46l-1.39-.59-.71-.3-.47-.23c-.54-.26-1.08-.53-1.61-.82-1.06-.57-2.11-1.19-3.12-1.84a23.23,23.23,0,0,1-5.32-4.49,9,9,0,0,1-1.57-2.66,10.48,10.48,0,0,0-2.27-3.54,31.51,31.51,0,0,0-5.54-4.62,57.68,57.68,0,0,0-10.68-5.72A25,25,0,0,0,243.63,307.78Z" transform="translate(5.82 -149.44)"/><path d="M284.59,336.58a15.69,15.69,0,0,0,3.69,1.4,12.31,12.31,0,0,0,4,.33,9,9,0,0,0,4-1.29,10.33,10.33,0,0,0,3-2.88,18.5,18.5,0,0,0,2.64-7.17,43.63,43.63,0,0,0,.58-7.27l-.31,1c-.18.65-.46,1.59-.82,2.71a32.41,32.41,0,0,1-3.43,7.74,10.28,10.28,0,0,1-2.88,3,9.12,9.12,0,0,1-3.46,1.24c-1.22.2-2.46.26-3.62.4A14.5,14.5,0,0,0,284.59,336.58Z" transform="translate(5.82 -149.44)"/><path d="M258.75,283.09c6.6,6.51,13.32,12.84,20.44,18.83a82.19,82.19,0,0,0,11.37,8.29,16.57,16.57,0,0,1,4.89,3.91,5,5,0,0,1,1.06,2.37,3.75,3.75,0,0,1-.06,1.24,6.24,6.24,0,0,1-.17.69l-.13.45a2.7,2.7,0,0,0-.08.31,4.6,4.6,0,0,0-.06.52l.05-.31a2.28,2.28,0,0,1,.08-.33l.11-.27c.15-.35.35-.73.52-1.21a4.13,4.13,0,0,0,.2-1.81,5.66,5.66,0,0,0-1-2.51c-1.08-1.83-3.16-3.55-5.48-5.21a81.79,81.79,0,0,1-6.86-5.84C274.48,293.68,264.72,284.05,258.75,283.09Z" transform="translate(5.82 -149.44)"/><path d="M262.78,245.78a42.12,42.12,0,0,0,2.66,6.65c.5,1.07,1.1,2.09,1.65,3.13s1.2,2,1.85,3a58.74,58.74,0,0,0,9.13,10.71,57.56,57.56,0,0,0,11.47,8.15l6.1,3.17c1,.49,1.93,1.12,2.9,1.68l1.43.86c.46.31.91.64,1.37,1,7.32,5,13.33,12.05,15.78,20.52.33,1.05.59,2.12.85,3.23a9.59,9.59,0,0,1,.28,1.34,3,3,0,0,1-.25,1.11,16.82,16.82,0,0,1-3.52,5.1,19.14,19.14,0,0,1-5,3.87A5.7,5.7,0,0,1,307,320a1.55,1.55,0,0,1-1.38-1l.07.14a1.56,1.56,0,0,0,.21.4,1.6,1.6,0,0,0,1.44.7,8.08,8.08,0,0,0,3.75-1.2,22.36,22.36,0,0,0,4.58-3.49,21.19,21.19,0,0,0,2.23-2.52,9.78,9.78,0,0,0,1.7-3.17,3.6,3.6,0,0,0,0-1.87c-.12-.65-.22-1.31-.36-2a39.74,39.74,0,0,0-1-4,37.5,37.5,0,0,0-9.58-15.43l-.84-.85c-.29-.28-.6-.54-.91-.8l-1.82-1.59c-1.29-1-2.57-2-3.91-2.88l-2.05-1.3a21.89,21.89,0,0,0-2.09-1.22l-4.19-2.25a63,63,0,0,1-14.23-10,78.65,78.65,0,0,1-9.75-11.11c-1.25-1.76-2.41-3.38-3.38-4.86Z" transform="translate(5.82 -149.44)"/><path d="M318.44,299.46a29.21,29.21,0,0,0,3,3.79,18,18,0,0,0,3.8,3.19,9.33,9.33,0,0,0,2.51,1.08,6.2,6.2,0,0,0,3,0,6.32,6.32,0,0,0,2.61-1.43,7.45,7.45,0,0,0,1-1l.76-1.08a12.44,12.44,0,0,0,1.81-4.8,18.09,18.09,0,0,0,.15-4.92,26.5,26.5,0,0,0-.84-4.72,31.66,31.66,0,0,0-1.56-4.54l.08.38.18,1c.14.87.3,2.12.41,3.62a29.33,29.33,0,0,1,0,5.11,16.28,16.28,0,0,1-1.44,5.5,10.1,10.1,0,0,1-1.54,2.29,4.81,4.81,0,0,1-1.87,1.43,3.4,3.4,0,0,1-2,.08,9.26,9.26,0,0,1-2.19-.91c-1.45-.8-2.79-1.78-4.07-2.53A12.46,12.46,0,0,0,318.44,299.46Z" transform="translate(5.82 -149.44)"/></g><g id="Layer_3" data-name="Layer 3"><path d="M33.12,303.06a8.42,8.42,0,1,1-2.47-6,8.42,8.42,0,0,1,2.47,6l.05-.49a7.45,7.45,0,0,0,0-1.45,8.74,8.74,0,0,0-2.11-5,9.61,9.61,0,0,0-7.66-3.27,10.42,10.42,0,0,0-8.82,5.72,11,11,0,0,0-1.14,5.88,10.74,10.74,0,0,0,2.21,5.69,11,11,0,0,0,4.78,3.6,10.66,10.66,0,0,0,5.63.58,10.18,10.18,0,0,0,4.66-2.06,8.88,8.88,0,0,0,2.64-3.44A5.94,5.94,0,0,0,33.12,303.06Z" transform="translate(5.82 -149.44)"/><path d="M52,310.83a8.42,8.42,0,0,1-8.43,8.42,8.41,8.41,0,0,1-6-2.46,8.43,8.43,0,1,1,14.39-6l.05-.5a8.23,8.23,0,0,0,0-1.44,8.67,8.67,0,0,0-2.12-5,9.56,9.56,0,0,0-7.65-3.28,10.45,10.45,0,0,0-8.83,5.72,11,11,0,0,0-1.13,5.88,11.54,11.54,0,0,0,.69,3,11.77,11.77,0,0,0,1.51,2.68,11,11,0,0,0,4.79,3.61,10.74,10.74,0,0,0,5.62.58,10.2,10.2,0,0,0,4.66-2.07,8.88,8.88,0,0,0,2.65-3.43A6,6,0,0,0,52,310.83Z" transform="translate(5.82 -149.44)"/><path d="M71.94,318.59a8.43,8.43,0,1,1-2.47-6,8.38,8.38,0,0,1,2.47,6l0-.49a7.29,7.29,0,0,0,0-1.45,8.74,8.74,0,0,0-2.12-5,9.57,9.57,0,0,0-7.65-3.27,10.44,10.44,0,0,0-8.83,5.72A10.85,10.85,0,0,0,52.28,320a11.17,11.17,0,0,0,.69,3,11.47,11.47,0,0,0,1.51,2.69,11,11,0,0,0,4.78,3.6,10.67,10.67,0,0,0,5.63.58,10.24,10.24,0,0,0,4.66-2.06,9,9,0,0,0,2.65-3.44A6,6,0,0,0,71.94,318.59Z" transform="translate(5.82 -149.44)"/></g></svg>